<svg width="54" height="57" viewBox="0 0 54 57" fill="none" xmlns="http://www.w3.org/2000/svg">
<rect width="54" height="57" rx="12" fill="#F0FFF0"/>
<path d="M40.9742 26.101C40.9742 22.7892 38.2729 20.0879 34.9611 20.0879C32.158 20.0879 29.7435 22.0583 29.1145 24.7134C26.996 24.6394 25.044 25.509 23.6194 26.9891L22.9071 26.3786C21.9542 25.5645 21.2881 24.4914 20.9828 23.2702L20.7978 22.5486L21.7414 22.2341C22.685 21.9196 23.3881 21.124 23.5824 20.1526L23.9802 18.1822C24.2577 16.813 23.4621 15.4439 22.13 14.9998L19.66 14.1765C18.3556 13.7417 16.9124 14.343 16.2926 15.5734L16.0706 16.0267C14.2019 19.7733 13.6838 24.0843 14.6274 28.164L14.7384 28.6543C15.608 32.4194 17.3935 35.9626 19.9097 38.9044L20.8348 39.9867C21.4639 40.7176 22.352 41.1154 23.2863 41.1154C23.5546 41.1154 23.8229 41.0784 24.0912 41.0136L30.0488 39.4502C34.11 38.5158 36.3395 35.9256 36.3395 32.1419C36.3395 32.0864 36.3395 32.0309 36.3395 31.9754C39.0038 31.3186 40.9742 28.9041 40.9742 26.101ZM28.9479 28.4138C26.9035 28.4138 25.2475 30.0697 25.2475 32.1142C25.2475 32.623 25.6638 33.0393 26.1726 33.0393C26.6814 33.0393 27.0977 32.623 27.0977 32.1142C27.0977 31.0965 27.9303 30.264 28.9479 30.264C29.4567 30.264 29.873 29.8477 29.873 29.3389C29.873 28.8301 29.4567 28.4138 28.9479 28.4138ZM35.2756 30.2455L34.2858 30.3195L34.4338 31.3001C34.48 31.6146 34.4985 31.8644 34.4985 32.1142C34.4985 35.0282 32.8611 36.8784 29.614 37.6277L23.6379 39.2004C23.1291 39.3299 22.5925 39.1634 22.2502 38.7564L21.3251 37.6833C19.0031 34.9727 17.3472 31.7071 16.5516 28.2287L16.4406 27.7384C15.5988 24.0751 16.0521 20.2081 17.7358 16.85L17.9578 16.3967C18.115 16.0729 18.4481 15.8879 18.7904 15.8879C18.8829 15.8879 18.9846 15.9064 19.0771 15.9342L21.5472 16.7575C21.9912 16.9055 22.2595 17.3588 22.167 17.8214L21.7692 19.7918C21.7044 20.1156 21.4731 20.3839 21.1586 20.4857L18.5868 21.346L19.1789 23.7328C19.5767 25.3239 20.4463 26.7301 21.6859 27.794L23.8691 29.6627L24.4612 28.8578C25.5251 27.4054 27.1533 26.5728 28.9387 26.5728C29.1792 26.5728 29.4382 26.5913 29.7528 26.6376L30.7334 26.7856L30.8074 25.7957C30.9739 23.6403 32.7871 21.9473 34.9518 21.9473C37.2461 21.9473 39.1148 23.816 39.1148 26.1103C39.124 28.2657 37.4311 30.0882 35.2756 30.2455Z" fill="#2DAF2D"/>
</svg>
